<svg xmlns="http://www.w3.org/2000/svg" width="165" height="29" viewBox="0 0 165 29">
  <g fill="none" transform="rotate(-180 82.5 14.291)">
    <path fill="#8E44AD" d="M150.507491,27.6746749 C158.150498,27.6746749 164.342782,21.4789462 164.342782,13.8376622 C164.342782,6.1946554 158.150498,0.000649606299 150.507491,0.000649606299 C142.864485,0.000649606299 136.670478,6.1946554 136.670478,13.8376622 C136.670478,21.4789462 142.864485,27.6746749 150.507491,27.6746749 Z"/>
    <path fill="#505050" d="M113.972161,15.027704 C113.958378,14.8846991 113.949763,14.7485861 113.949763,14.6210877 L113.949763,14.1903501 C113.949763,12.8602326 114.18753,11.6696741 114.657895,10.6152286 C115.131707,9.56422901 115.757138,8.67174083 116.535911,7.93259522 C117.316407,7.1968955 118.219233,6.63521375 119.242666,6.24754997 C120.264375,5.86160914 121.329158,5.66863873 122.430123,5.66863873 C123.63102,5.66863873 124.747491,5.88573043 125.781261,6.32335978 C126.809863,6.75926617 127.700628,7.35712987 128.451834,8.11522794 C129.20304,8.87504896 129.795735,9.75719942 130.223027,10.7668482 C130.653765,11.776497 130.86741,12.8516179 130.86741,13.9973798 C130.86741,15.1862153 130.64515,16.2820116 130.202351,17.2830457 C129.75783,18.2840798 129.151352,19.1472778 128.376024,19.8691939 C127.604143,20.5928329 126.70304,21.1579605 125.670993,21.5645768 C124.640668,21.9729161 123.539703,22.1779471 122.366374,22.1779471 C121.422198,22.1779471 120.517649,22.0263275 119.651005,21.7265342 C118.784361,21.4250178 118.000419,21.0218475 117.300901,20.5135772 C116.597937,20.0070299 115.998351,19.4108891 115.496972,18.7303238 C114.995594,18.0514815 114.638943,17.3243965 114.423574,16.5525148 L118.973885,16.5525148 C119.289185,17.1107506 119.737152,17.5931767 120.316064,18.0015159 C120.896698,18.4098551 121.615168,18.6131632 122.473197,18.6131632 C122.974576,18.6131632 123.482846,18.5201238 123.996285,18.3340453 C124.511447,18.1496896 124.978367,17.8654028 125.391875,17.4863538 C125.807106,17.1073047 126.146527,16.6283247 126.413584,16.0476904 C126.677196,15.4687792 126.809863,14.784768 126.809863,13.9973798 C126.809863,13.1686408 126.677196,12.4518935 126.413584,11.8505839 C126.146527,11.2492743 125.80366,10.7565105 125.38326,10.3705697 C124.959414,9.9829059 124.490772,9.69689617 123.977333,9.51081755 C123.458725,9.32473895 122.9539,9.23169963 122.452522,9.23169963 C121.435981,9.23169963 120.602073,9.46429791 119.952521,9.92949445 C119.299523,10.394691 118.86534,11.0132301 118.653417,11.7868347 L123.396698,11.7868347 L123.396698,15.027704 L113.972161,15.027704 Z"/>
    <polygon fill="#505050" points="107.79 21.877 111.845 21.877 111.845 5.991 107.79 5.991"/>
    <polygon fill="#505050" points="104.913 21.877 96.24 21.877 96.24 18.314 101.028 18.314 101.028 15.609 96.409 15.609 96.409 12.044 101.028 12.044 101.028 5.991 104.913 5.991"/>
    <polygon fill="#505050" points="92.139 18.313 95.273 18.313 95.273 21.876 84.968 21.876 84.968 18.313 88.082 18.313 88.082 5.99 92.139 5.99"/>
    <path fill="#505050" d="M80.2903809 13.9768766C80.2903809 13.3600605 80.1904498 12.7708115 79.9871417 12.2056839 79.7890024 11.6405562 79.4978238 11.1391778 79.1187748 10.7032714 78.7414488 10.265642 78.283144 9.91588313 77.7455836 9.65054882 77.2080231 9.3852145 76.5946529 9.25254733 75.9106416 9.25254733 75.1938943 9.25254733 74.5684635 9.39899809 74.030903 9.69362257 73.4950655 9.98652409 73.0505443 10.3621272 72.6990625 10.820432 72.3493037 11.2787367 72.0856923 11.7783923 71.9065055 12.3228445 71.7273186 12.8672968 71.6394482 13.3962424 71.6394482 13.9131275 71.6394482 14.4265666 71.7273186 14.9589582 71.9065055 15.5120252 72.0856923 16.0616463 72.3493037 16.5699166 72.6990625 17.0351132 73.0505443 17.5003098 73.4967885 17.8810817 74.0429637 18.1739832 74.585693 18.4668847 75.2231846 18.6133355 75.9537154 18.6133355 76.6549561 18.6133355 77.2769411 18.4772224 77.8213933 18.2067193 78.3641226 17.9327702 78.8189815 17.5743966 79.1842469 17.1333213 79.5460665 16.6888001 79.8251844 16.1908676 80.011263 15.6395236 80.1956187 15.0899025 80.2903809 14.5351124 80.2903809 13.9768766M83.7224976 17.1333213C83.5088518 17.6484834 83.1952749 18.1981045 82.778321 18.7856305 82.36309 19.3714335 81.8393131 19.9193318 81.2018216 20.4276021 80.56433 20.9358723 79.8148466 21.3545492 78.9482027 21.6836327 78.0832818 22.0127161 77.0908626 22.1781194 75.9743908 22.1781194 74.757988 22.1781194 73.6346244 21.9558588 72.6043003 21.5113376 71.5739761 21.0668165 70.6849339 20.4706758 69.9423423 19.7177466 69.1980278 18.9665403 68.6173937 18.0912816 68.2021626 17.0902476 67.7886546 16.0874906 67.5801777 15.0364911 67.5801777 13.9338029 67.5801777 12.8311148 67.7886546 11.7783923 68.2021626 10.7790812 68.6173937 9.77632417 69.1980278 8.89934255 69.9423423 8.14813629 70.6849339 7.39693002 71.5739761 6.79734336 72.6043003 6.35626813 73.6346244 5.91174699 74.7648798 5.68948641 75.9950662 5.68948641 77.2407592 5.68948641 78.3796292 5.91863879 79.4082304 6.37694353 80.4385546 6.83524827 81.3207051 7.43828082 82.049513 8.19121003 82.778321 8.9424163 83.3451716 9.80216843 83.7466189 10.7670205 84.1463434 11.7335956 84.3479285 12.7242919 84.3479285 13.7408325 84.3479285 14.2697781 84.3031318 14.8211223 84.2169843 15.3931417 84.1325598 15.9651611 83.9688795 16.5457953 83.7224976 17.1333213M49.1832051 15.027704C49.1676986 14.8846991 49.1608068 14.7485861 49.1608068 14.6210877L49.1608068 14.1903501C49.1608068 12.8602326 49.396851 11.6696741 49.8689392 10.6152286 50.3410276 9.56422901 50.9681814 8.67174083 51.7486779 7.93259522 52.5274513 7.1968955 53.4285542 6.63521375 54.4537096 6.24754997 55.477142 5.86160914 56.5384793 5.66863873 57.6411674 5.66863873 58.8420637 5.66863873 59.9585354 5.88573043 60.9888596 6.32335978 62.0209066 6.75926617 62.9116719 7.35712987 63.6628782 8.11522794 64.4140844 8.87504896 65.0050564 9.75719942 65.4340709 10.7668482 65.8630855 11.776497 66.0784543 12.8516179 66.0784543 13.9973798 66.0784543 15.1862153 65.8561938 16.2820116 65.4099496 17.2830457 64.9688745 18.2840798 64.35895 19.1472778 63.5870683 19.8691939 62.8151868 20.5928329 61.9123608 21.1579605 60.8820366 21.5645768 59.8517124 21.9729161 58.7490243 22.1779471 57.5774183 22.1779471 56.6315187 22.1779471 55.7269698 22.0263275 54.8620488 21.7265342 53.9954049 21.4250178 53.2097396 21.0218475 52.5102218 20.5135772 51.8089812 20.0070299 51.2076715 19.4108891 50.706293 18.7303238 50.2066374 18.0514815 49.8482638 17.3243965 49.6328952 16.5525148L54.1849294 16.5525148C54.4985064 17.1107506 54.9464733 17.5931767 55.5271075 18.0015159 56.1060189 18.4098551 56.826212 18.6131632 57.6842411 18.6131632 58.1856196 18.6131632 58.692167 18.5201238 59.2073291 18.3340453 59.7242141 18.1496896 60.1894107 17.8654028 60.6029187 17.4863538 61.0198727 17.1073047 61.3575709 16.6283247 61.6229052 16.0476904 61.8882395 15.4687792 62.0209066 14.784768 62.0209066 13.9973798 62.0209066 13.1686408 61.8882395 12.4518935 61.6229052 11.8505839 61.3575709 11.2492743 61.0164268 10.7565105 60.592581 10.3705697 60.1704583 9.9829059 59.7018158 9.69689617 59.1866537 9.51081755 58.6714916 9.32473895 58.1632213 9.23169963 57.6618428 9.23169963 56.6453023 9.23169963 55.8131174 9.46429791 55.1601192 9.92949445 54.510567 10.394691 54.0763835 11.0132301 53.8627377 11.7868347L58.6060195 11.7868347 58.6060195 15.027704 49.1832051 15.027704zM43.1713151 13.8902123L41.7326518 13.8902123C41.1313421 13.8902123 40.655808 13.9729139 40.306049 14.1383171 39.9545672 14.3019973 39.6892329 14.5018596 39.510046 14.7396267 39.3325822 14.9739479 39.2154216 15.2220528 39.1551183 15.4804953 39.099984 15.7372149 39.0706938 15.9663671 39.0706938 16.1662294 39.0706938 16.8950373 39.3101839 17.4360437 39.7908869 17.7875255 40.2698671 18.1372843 40.9039128 18.3130253 41.6913009 18.3130253L43.1713151 18.3130253 43.1713151 13.8902123zM47.0565677 21.8760863L42.0324451 21.8760863C41.3329273 21.8760863 40.7298948 21.8554108 40.2302392 21.812337 39.7288607 21.7692633 39.2929544 21.7020683 38.9207971 21.6090289 38.5486399 21.5142667 38.2230024 21.3971061 37.9438843 21.2541012 37.6647664 21.1110964 37.3959863 20.9388013 37.1375438 20.7389391 36.4810997 20.223777 35.9900589 19.5759478 35.6678672 18.7971743 35.3456756 18.0166779 35.1854412 17.2189519 35.1854412 16.4022736 35.1854412 15.9439688 35.2509132 15.451205 35.3784116 14.9222593 35.5076328 14.3915908 35.7264475 13.8867664 36.0331326 13.4077862 36.3415408 12.9288061 36.748157 12.5049603 37.2581502 12.1414179 37.7646976 11.7761524 38.3918514 11.5297705 39.1361659 11.4005493L34.8201758 5.9904858 39.4566346 5.9904858 43.1282414 11.1214314 43.1713151 11.1214314 43.1713151 5.9904858 47.0565677 5.9904858 47.0565677 21.8760863zM27.9717935 11.5068553L24.6447768 11.5068553 26.2764106 16.9393172 26.297086 16.9393172 26.3401597 16.9393172 27.9717935 11.5068553zM29.0882652 8.28666148L29.9256189 5.98996892 34.2846829 5.98996892 27.9080444 21.8772923 24.7085259 21.8772923 18.3973596 5.98996892 22.7994972 5.98996892 23.5713788 8.28666148 29.0882652 8.28666148z"/>
    <polygon fill="#505050" points="16.766 21.877 11.549 21.877 8.394 11.422 8.351 11.422 5.238 21.877 0 21.877 0 5.991 3.737 5.991 3.606 17.885 3.649 17.928 7.042 5.991 9.726 5.991 13.117 17.928 13.16 17.885 13.032 5.991 16.766 5.991"/>
    <path fill="#FEFEFE" d="M149.067105,18.0965666 C147.795568,18.2453383 146.303493,18.669165 146.303493,19.4407022 C146.303493,20.0980658 147.051253,20.8471144 147.704252,20.8471144 C148.422722,20.8471144 148.925823,19.7953326 149.067105,18.0965666 L149.067105,18.0965666 Z M151.944432,18.0948367 C152.082268,19.7953326 152.588816,20.8471144 153.307285,20.8471144 C153.960284,20.8471144 154.70632,20.0980658 154.70632,19.4407022 C154.70632,18.6639752 153.215969,18.2418785 151.944432,18.0948367 L151.944432,18.0948367 Z M143.503699,13.4016064 L150.038848,13.4016064 L150.038848,17.1520388 L150.972687,17.1520388 L150.972687,13.4016064 L157.507839,13.4016064 L157.507839,17.1520388 L151.906526,17.1520388 L151.906526,17.2073958 C153.267658,17.3440582 155.640159,17.8215118 155.640159,19.4943293 C155.640159,20.6654744 154.475445,21.8383496 153.307285,21.8383496 C152.251116,21.8383496 151.198394,20.8730629 151.00887,18.087917 L150.972687,18.087917 L150.038848,18.087917 L150.006114,18.087917 C149.814866,20.8730629 148.760419,21.8383496 147.705975,21.8383496 C146.537815,21.8383496 145.369654,20.6654744 145.369654,19.4943293 C145.369654,17.8215118 147.743879,17.3440582 149.103287,17.2073958 L149.103287,17.1520388 L143.503699,17.1520388 L143.503699,13.4016064 Z M144.435815,12.4639983 L150.038848,12.4639983 L150.038848,6.83834958 L144.435815,6.83834958 L144.435815,12.4639983 Z M150.972687,12.4639983 L156.573998,12.4639983 L156.573998,6.83834958 L150.972687,6.83834958 L150.972687,12.4639983 Z"/>
  </g>
</svg>
